<?xml version="1.0" encoding="UTF-8"?>
<!DOCTYPE svg PUBLIC "-//W3C//DTD SVG 1.1//EN" "http://www.w3.org/Graphics/SVG/1.1/DTD/svg11.dtd">
<svg xmlns="http://www.w3.org/2000/svg" version="1.1" width="64px" height="64px" style="shape-rendering:geometricPrecision; text-rendering:geometricPrecision; image-rendering:optimizeQuality; fill-rule:evenodd; clip-rule:evenodd" xmlns:xlink="http://www.w3.org/1999/xlink">
<g><path style="opacity:1" fill="#00af4a" d="M 16.5,-0.5 C 17.1667,-0.5 17.8333,-0.5 18.5,-0.5C 21.984,4.49072 26.484,8.15738 32,10.5C 37.5528,8.44949 41.7195,4.78282 44.5,-0.5C 45.1667,-0.5 45.8333,-0.5 46.5,-0.5C 51.8333,5.5 57.5,11.1667 63.5,16.5C 63.5,17.1667 63.5,17.8333 63.5,18.5C 59.5201,22.1447 55.5201,25.8114 51.5,29.5C 50.4471,28.5617 49.7804,27.395 49.5,26C 50.902,22.7614 52.902,19.9281 55.5,17.5C 52.1465,13.9809 48.9798,10.3142 46,6.5C 37.2306,18.6943 28.064,19.1943 18.5,8C 17.8333,7.33333 17.1667,7.33333 16.5,8C 13.5,11 10.5,14 7.5,17C 14.5341,24.7174 22.0341,31.5507 30,37.5C 31.3953,36.5697 32.8953,36.5697 34.5,37.5C 36.0293,37.4712 37.196,36.8045 38,35.5C 44.6773,35.7848 45.1773,38.1181 39.5,42.5C 36.0524,44.4932 32.5524,45.4932 29,45.5C 26.6349,44.7109 24.4682,43.5442 22.5,42C 15.3284,33.662 7.66176,25.8286 -0.5,18.5C -0.5,17.8333 -0.5,17.1667 -0.5,16.5C 5.5,11.1667 11.1667,5.5 16.5,-0.5 Z M 35.5,38.5 C 37.7602,39.2376 37.9269,40.2376 36,41.5C 35.5172,40.552 35.3505,39.552 35.5,38.5 Z"/></g>
<g><path style="opacity:1" fill="#00af4a" d="M 63.5,44.5 C 63.5,45.1667 63.5,45.8333 63.5,46.5C 57.5,51.8333 51.8333,57.5 46.5,63.5C 45.8333,63.5 45.1667,63.5 44.5,63.5C 41.016,58.5093 36.516,54.8426 31,52.5C 25.4472,54.5505 21.2805,58.2172 18.5,63.5C 17.8333,63.5 17.1667,63.5 16.5,63.5C 11.1667,57.5 5.5,51.8333 -0.5,46.5C -0.5,45.8333 -0.5,45.1667 -0.5,44.5C 3.47988,40.8553 7.47988,37.1886 11.5,33.5C 12.5529,34.4383 13.2196,35.605 13.5,37C 12.098,40.2386 10.098,43.0719 7.5,45.5C 10.8535,49.0191 14.0202,52.6858 17,56.5C 25.7694,44.3057 34.936,43.8057 44.5,55C 45.1667,55.6667 45.8333,55.6667 46.5,55C 49.5,52 52.5,49 55.5,46C 49.8005,40.6352 44.4672,34.9685 39.5,29C 36.0769,27.0961 32.4102,26.2628 28.5,26.5C 28.9059,24.8908 28.9059,23.5575 28.5,22.5C 26.5188,23.1054 26.1854,24.1054 27.5,25.5C 25.6164,29.0172 23.2831,29.3506 20.5,26.5C 25.3218,18.2236 31.9885,16.3903 40.5,21C 47.6716,29.338 55.3382,37.1714 63.5,44.5 Z M 35.5,38.5 C 35.3505,39.552 35.5172,40.552 36,41.5C 37.9269,40.2376 37.7602,39.2376 35.5,38.5 Z"/></g>
</svg>
